<?xml version="1.0" encoding="UTF-8"?>
<svg width="700pt" height="700pt" version="1.1" viewBox="0 0 700 700" xmlns="http://www.w3.org/2000/svg" xmlns:xlink="http://www.w3.org/1999/xlink">
 <defs>
  <symbol id="v" overflow="visible">
   <path d="m3.7188-0.21875c-0.1875 0.09375-0.38672 0.16797-0.59375 0.21875-0.21094 0.050781-0.42969 0.078125-0.65625 0.078125-0.66797 0-1.1992-0.1875-1.5938-0.5625-0.39844-0.375-0.59375-0.89062-0.59375-1.5469 0-0.64453 0.19531-1.1562 0.59375-1.5312 0.39453-0.375 0.92578-0.5625 1.5938-0.5625 0.22656 0 0.44531 0.027344 0.65625 0.078125 0.20703 0.054687 0.40625 0.125 0.59375 0.21875v0.84375c-0.1875-0.13281-0.375-0.23438-0.5625-0.29688s-0.38672-0.09375-0.59375-0.09375c-0.375 0-0.67188 0.12109-0.89062 0.35938-0.21094 0.24219-0.3125 0.57031-0.3125 0.98438 0 0.42969 0.10156 0.76172 0.3125 1 0.21875 0.24219 0.51562 0.35938 0.89062 0.35938 0.20703 0 0.40625-0.03125 0.59375-0.09375s0.375-0.16016 0.5625-0.29688z"/>
  </symbol>
  <symbol id="d" overflow="visible">
   <path d="m2.7344-2.2188c-0.09375-0.03125-0.18359-0.054688-0.26562-0.078125-0.085938-0.019531-0.16797-0.03125-0.25-0.03125-0.25 0-0.44531 0.085937-0.57812 0.25-0.13672 0.15625-0.20312 0.38281-0.20312 0.67188v1.4062h-0.96875v-3.0469h0.96875v0.5c0.125-0.19531 0.26562-0.33594 0.42188-0.42188 0.16406-0.09375 0.36328-0.14062 0.59375-0.14062h0.09375c0.039063 0 0.097656 0.007813 0.17188 0.015625z"/>
  </symbol>
  <symbol id="b" overflow="visible">
   <path d="m3.5-1.5312v0.28125h-2.2656c0.019531 0.23047 0.097656 0.40234 0.23438 0.51562 0.14453 0.11719 0.34375 0.17188 0.59375 0.17188 0.20703 0 0.41406-0.03125 0.625-0.09375 0.21875-0.0625 0.44141-0.15625 0.67188-0.28125v0.75c-0.23047 0.09375-0.46094 0.16406-0.6875 0.20312-0.23047 0.039062-0.46094 0.0625-0.6875 0.0625-0.55469 0-0.98438-0.14062-1.2969-0.42188-0.30469-0.28125-0.45312-0.67188-0.45312-1.1719s0.14844-0.89062 0.45312-1.1719c0.30078-0.28125 0.71094-0.42188 1.2344-0.42188 0.47656 0 0.85938 0.14844 1.1406 0.4375 0.28906 0.28125 0.4375 0.66406 0.4375 1.1406zm-1-0.32812c0-0.17578-0.054688-0.32031-0.15625-0.4375-0.10547-0.11328-0.24609-0.17188-0.42188-0.17188-0.1875 0-0.34375 0.054688-0.46875 0.15625-0.11719 0.10547-0.1875 0.25781-0.21875 0.45312z"/>
  </symbol>
  <symbol id="l" overflow="visible">
   <path d="m1.8281-1.375c-0.19922 0-0.35156 0.039062-0.45312 0.10938-0.10547 0.074219-0.15625 0.17188-0.15625 0.29688s0.039062 0.22656 0.125 0.29688c0.082031 0.074219 0.19531 0.10938 0.34375 0.10938 0.1875 0 0.33594-0.066406 0.45312-0.20312 0.125-0.13281 0.1875-0.29688 0.1875-0.48438v-0.125zm1.4844-0.35938v1.7344h-0.98438v-0.45312c-0.125 0.1875-0.27344 0.32422-0.4375 0.40625-0.15625 0.082031-0.35547 0.125-0.59375 0.125-0.3125 0-0.57031-0.085938-0.76562-0.26562-0.19922-0.1875-0.29688-0.42578-0.29688-0.71875 0-0.36328 0.11719-0.62891 0.35938-0.79688 0.25-0.16406 0.64062-0.25 1.1719-0.25h0.5625v-0.078125c0-0.14453-0.0625-0.25391-0.1875-0.32812-0.11719-0.070313-0.29688-0.10938-0.54688-0.10938-0.21094 0-0.40625 0.023438-0.59375 0.0625-0.17969 0.042969-0.34375 0.10547-0.5 0.1875v-0.73438c0.20703-0.050781 0.41406-0.085937 0.625-0.10938 0.21875-0.03125 0.42969-0.046875 0.64062-0.046875 0.53906 0 0.92969 0.10938 1.1719 0.32812 0.25 0.21094 0.375 0.55859 0.375 1.0469z"/>
  </symbol>
  <symbol id="a" overflow="visible">
   <path d="m1.5312-3.9062v0.85938h1v0.70312h-1v1.2812c0 0.14844 0.023438 0.24609 0.078125 0.29688 0.0625 0.042969 0.17578 0.0625 0.34375 0.0625h0.5v0.70312h-0.84375c-0.38672 0-0.65625-0.078125-0.8125-0.23438-0.15625-0.16406-0.23438-0.44141-0.23438-0.82812v-1.2812h-0.48438v-0.70312h0.48438v-0.85938z"/>
  </symbol>
  <symbol id="f" overflow="visible">
   <path d="m2.5312-2.5938v-1.625h0.98438v4.2188h-0.98438v-0.4375c-0.13672 0.17969-0.28125 0.30859-0.4375 0.39062-0.15625 0.082031-0.34375 0.125-0.5625 0.125-0.375 0-0.68359-0.14453-0.92188-0.4375-0.24219-0.30078-0.35938-0.6875-0.35938-1.1562s0.11719-0.84766 0.35938-1.1406c0.23828-0.30078 0.54688-0.45312 0.92188-0.45312 0.20703 0 0.39062 0.042969 0.54688 0.125 0.16406 0.085937 0.31641 0.21484 0.45312 0.39062zm-0.64062 1.9688c0.20703 0 0.36328-0.070312 0.46875-0.21875 0.11328-0.15625 0.17188-0.37891 0.17188-0.67188 0-0.28906-0.058594-0.50781-0.17188-0.65625-0.10547-0.15625-0.26172-0.23438-0.46875-0.23438-0.19922 0-0.35547 0.078125-0.46875 0.23438-0.11719 0.14844-0.17188 0.36719-0.17188 0.65625 0 0.29297 0.054688 0.51562 0.17188 0.67188 0.11328 0.14844 0.26953 0.21875 0.46875 0.21875z"/>
  </symbol>
  <symbol id="k" overflow="visible">
   <path d="m2.0938-0.625c0.19531 0 0.35156-0.070312 0.46875-0.21875 0.11328-0.15625 0.17188-0.37891 0.17188-0.67188 0-0.28906-0.058594-0.50781-0.17188-0.65625-0.11719-0.15625-0.27344-0.23438-0.46875-0.23438-0.21094 0-0.37109 0.078125-0.48438 0.23438-0.11719 0.14844-0.17188 0.36719-0.17188 0.65625 0 0.28125 0.054688 0.5 0.17188 0.65625 0.11328 0.15625 0.27344 0.23438 0.48438 0.23438zm-0.65625-1.9688c0.13281-0.17578 0.28125-0.30469 0.4375-0.39062 0.16406-0.082031 0.35938-0.125 0.57812-0.125 0.375 0 0.67969 0.15234 0.92188 0.45312 0.23828 0.29297 0.35938 0.67188 0.35938 1.1406s-0.12109 0.85547-0.35938 1.1562c-0.24219 0.29297-0.54688 0.4375-0.92188 0.4375-0.21875 0-0.41406-0.042969-0.57812-0.125-0.15625-0.082031-0.30469-0.21094-0.4375-0.39062v0.4375h-0.96875v-4.2188h0.96875z"/>
  </symbol>
  <symbol id="e" overflow="visible">
   <path d="m0.0625-3.0469h0.98438l0.8125 2.0625 0.6875-2.0625h0.98438l-1.2812 3.3281c-0.13672 0.34375-0.28906 0.58203-0.45312 0.71875-0.16797 0.13281-0.39062 0.20312-0.67188 0.20312h-0.5625v-0.64062h0.29688c0.16406 0 0.28516-0.027344 0.35938-0.078125 0.070312-0.054687 0.12891-0.14844 0.17188-0.28125l0.03125-0.09375z"/>
  </symbol>
  <symbol id="j" overflow="visible">
   <path d="m2.9688-0.73438h-1.625l-0.26562 0.73438h-1.0469l1.5-4.0625h1.25l1.5 4.0625h-1.0469zm-1.375-0.75h1.1094l-0.54688-1.625z"/>
  </symbol>
  <symbol id="i" overflow="visible">
   <path d="m3.2812-2.5312c0.125-0.1875 0.26953-0.32812 0.4375-0.42188 0.17578-0.10156 0.36328-0.15625 0.5625-0.15625 0.35156 0 0.61719 0.10938 0.79688 0.32812 0.1875 0.21094 0.28125 0.51562 0.28125 0.92188v1.8594h-0.98438v-1.5938-0.0625c0.007812-0.03125 0.015625-0.066406 0.015625-0.10938 0-0.21875-0.039063-0.375-0.10938-0.46875-0.0625-0.09375-0.16406-0.14062-0.29688-0.14062-0.1875 0-0.33594 0.078125-0.4375 0.23438-0.09375 0.14844-0.14844 0.35938-0.15625 0.64062v1.5h-0.96875v-1.5938c0-0.33203-0.03125-0.54688-0.09375-0.64062-0.054687-0.09375-0.15234-0.14062-0.29688-0.14062-0.1875 0-0.33594 0.078125-0.4375 0.23438-0.10547 0.14844-0.15625 0.35938-0.15625 0.64062v1.5h-0.96875v-3.0469h0.96875v0.45312c0.125-0.17578 0.25781-0.30469 0.40625-0.39062 0.15625-0.082031 0.32812-0.125 0.51562-0.125 0.20703 0 0.39062 0.054687 0.54688 0.15625 0.16406 0.09375 0.28906 0.23438 0.375 0.42188z"/>
  </symbol>
  <symbol id="h" overflow="visible">
   <path d="m3.5312-1.8594v1.8594h-0.98438v-1.4062c0-0.26953-0.007813-0.45312-0.015625-0.54688-0.011719-0.10156-0.03125-0.17969-0.0625-0.23438-0.042969-0.0625-0.09375-0.10938-0.15625-0.14062s-0.13672-0.046875-0.21875-0.046875c-0.21094 0-0.37109 0.078125-0.48438 0.23438-0.11719 0.15625-0.17188 0.37109-0.17188 0.64062v1.5h-0.96875v-4.2188h0.96875v1.625c0.14453-0.17578 0.30078-0.30469 0.46875-0.39062 0.16406-0.082031 0.34766-0.125 0.54688-0.125 0.35156 0 0.61719 0.10938 0.79688 0.32812 0.1875 0.21094 0.28125 0.51562 0.28125 0.92188z"/>
  </symbol>
  <symbol id="u" overflow="visible">
   <path d="m2.8438-2.9531v0.75c-0.21094-0.09375-0.41406-0.16016-0.60938-0.20312-0.1875-0.039062-0.37109-0.0625-0.54688-0.0625-0.17969 0-0.3125 0.027344-0.40625 0.078125-0.09375 0.042969-0.14062 0.10938-0.14062 0.20312 0 0.085938 0.03125 0.14844 0.09375 0.1875 0.070313 0.042969 0.19531 0.070312 0.375 0.078125l0.17188 0.03125c0.5 0.0625 0.83203 0.16797 1 0.3125 0.17578 0.14844 0.26562 0.375 0.26562 0.6875 0 0.32422-0.12109 0.57031-0.35938 0.73438-0.24219 0.15625-0.59375 0.23438-1.0625 0.23438-0.21094 0-0.42188-0.015625-0.64062-0.046875-0.21094-0.03125-0.42969-0.078125-0.65625-0.14062v-0.73438c0.19531 0.09375 0.39453 0.16797 0.59375 0.21875 0.20703 0.042969 0.41406 0.0625 0.625 0.0625 0.19531 0 0.34375-0.023438 0.4375-0.078125 0.09375-0.050781 0.14062-0.12891 0.14062-0.23438 0-0.09375-0.039062-0.16016-0.10938-0.20312-0.0625-0.039063-0.19531-0.070313-0.39062-0.09375l-0.17188-0.015625c-0.42969-0.0625-0.73047-0.16406-0.90625-0.3125-0.17969-0.14453-0.26562-0.36719-0.26562-0.67188 0-0.3125 0.10938-0.54688 0.32812-0.70312 0.22656-0.15625 0.57031-0.23438 1.0312-0.23438 0.17578 0 0.36328 0.015625 0.5625 0.046875 0.19531 0.023438 0.41016 0.058594 0.64062 0.10938z"/>
  </symbol>
  <symbol id="t" overflow="visible">
   <path d="m3.3281-3.9219v0.85938c-0.21875-0.10156-0.4375-0.17969-0.65625-0.23438-0.21094-0.050781-0.40625-0.078125-0.59375-0.078125-0.25 0-0.4375 0.039062-0.5625 0.10938-0.11719 0.0625-0.17188 0.16797-0.17188 0.3125 0 0.11719 0.039062 0.20312 0.125 0.26562 0.082031 0.054688 0.22656 0.10547 0.4375 0.15625l0.45312 0.078125c0.44531 0.09375 0.76562 0.23438 0.95312 0.42188s0.28125 0.44922 0.28125 0.78125c0 0.44922-0.13672 0.78125-0.40625 1-0.26172 0.21875-0.66406 0.32812-1.2031 0.32812-0.26172 0-0.52344-0.027344-0.78125-0.078125-0.25-0.039062-0.50781-0.11328-0.76562-0.21875v-0.875c0.25781 0.13672 0.50781 0.24219 0.75 0.3125 0.23828 0.074219 0.47266 0.10938 0.70312 0.10938 0.22656 0 0.39844-0.035156 0.51562-0.10938 0.125-0.082031 0.1875-0.19531 0.1875-0.34375 0-0.125-0.042969-0.21875-0.125-0.28125-0.085938-0.070312-0.25-0.13281-0.5-0.1875l-0.40625-0.09375c-0.39844-0.082031-0.6875-0.21875-0.875-0.40625-0.1875-0.19531-0.28125-0.45703-0.28125-0.78125 0-0.40625 0.12891-0.71094 0.39062-0.92188 0.25781-0.21875 0.63281-0.32812 1.125-0.32812 0.21875 0 0.44141 0.015625 0.67188 0.046875 0.23828 0.03125 0.48438 0.085937 0.73438 0.15625z"/>
  </symbol>
  <symbol id="g" overflow="visible">
   <path d="m0.4375-1.1875v-1.8594h0.96875v0.3125 0.625 0.48438c0 0.25 0.003906 0.43359 0.015625 0.54688 0.007813 0.10547 0.03125 0.17969 0.0625 0.21875 0.039063 0.0625 0.09375 0.11719 0.15625 0.15625 0.070313 0.03125 0.14844 0.046875 0.23438 0.046875 0.19531 0 0.35156-0.078125 0.46875-0.23438 0.11328-0.15625 0.17188-0.375 0.17188-0.65625v-1.5h0.98438v3.0469h-0.98438v-0.4375c-0.14844 0.17969-0.30469 0.30859-0.46875 0.39062-0.15625 0.082031-0.33594 0.125-0.53125 0.125-0.35547 0-0.625-0.10156-0.8125-0.3125-0.17969-0.21875-0.26562-0.53516-0.26562-0.95312z"/>
  </symbol>
  <symbol id="s" overflow="visible">
   <path d="m0.46875-3.0469h0.96875v3.0469h-0.96875zm0-1.1719h0.96875v0.78125h-0.96875z"/>
  </symbol>
  <symbol id="c" overflow="visible">
   <path d="m1.9219-2.4219c-0.21875 0-0.38672 0.078125-0.5 0.23438-0.11719 0.15625-0.17188 0.38281-0.17188 0.67188 0 0.29297 0.054688 0.51562 0.17188 0.67188 0.11328 0.15625 0.28125 0.23438 0.5 0.23438 0.20703 0 0.36328-0.078125 0.46875-0.23438 0.11328-0.15625 0.17188-0.37891 0.17188-0.67188 0-0.28906-0.058594-0.51562-0.17188-0.67188-0.10547-0.15625-0.26172-0.23438-0.46875-0.23438zm0-0.6875c0.51953 0 0.92578 0.14062 1.2188 0.42188 0.28906 0.28125 0.4375 0.67188 0.4375 1.1719s-0.14844 0.89062-0.4375 1.1719c-0.29297 0.28125-0.69922 0.42188-1.2188 0.42188-0.53125 0-0.94922-0.14062-1.25-0.42188-0.29297-0.28125-0.4375-0.67188-0.4375-1.1719s0.14453-0.89062 0.4375-1.1719c0.30078-0.28125 0.71875-0.42188 1.25-0.42188z"/>
  </symbol>
  <symbol id="r" overflow="visible">
   <path d="m2.4688-4.2188v0.625h-0.53125c-0.14844 0-0.24609 0.027344-0.29688 0.078125-0.054687 0.054687-0.078125 0.14062-0.078125 0.26562v0.20312h0.82812v0.70312h-0.82812v2.3438h-0.96875v-2.3438h-0.48438v-0.70312h0.48438v-0.20312c0-0.33203 0.085938-0.57812 0.26562-0.73438 0.1875-0.15625 0.47266-0.23438 0.85938-0.23438z"/>
  </symbol>
  <symbol id="q" overflow="visible">
   <path d="m0.51562-4.0625h1.1562l1.4844 2.7812v-2.7812h0.98438v4.0625h-1.1562l-1.4844-2.7812v2.7812h-0.98438z"/>
  </symbol>
  <symbol id="p" overflow="visible">
   <path d="m3.5312-1.8594v1.8594h-0.98438v-1.4219c0-0.25781-0.007813-0.4375-0.015625-0.53125-0.011719-0.10156-0.03125-0.17969-0.0625-0.23438-0.042969-0.0625-0.09375-0.10938-0.15625-0.14062s-0.13672-0.046875-0.21875-0.046875c-0.21094 0-0.37109 0.078125-0.48438 0.23438-0.11719 0.15625-0.17188 0.37109-0.17188 0.64062v1.5h-0.96875v-3.0469h0.96875v0.45312c0.14453-0.17578 0.30078-0.30469 0.46875-0.39062 0.16406-0.082031 0.34766-0.125 0.54688-0.125 0.35156 0 0.61719 0.10938 0.79688 0.32812 0.1875 0.21094 0.28125 0.51562 0.28125 0.92188z"/>
  </symbol>
  <symbol id="o" overflow="visible">
   <path d="m0.51562-4.0625h1.7344c0.50781 0 0.89844 0.11719 1.1719 0.34375 0.28125 0.23047 0.42188 0.55859 0.42188 0.98438 0 0.42969-0.14062 0.75781-0.42188 0.98438-0.27344 0.23047-0.66406 0.34375-1.1719 0.34375h-0.6875v1.4062h-1.0469zm1.0469 0.76562v1.125h0.57812c0.19531 0 0.34766-0.046875 0.45312-0.14062 0.11328-0.09375 0.17188-0.23438 0.17188-0.42188 0-0.17578-0.058594-0.3125-0.17188-0.40625-0.10547-0.10156-0.25781-0.15625-0.45312-0.15625z"/>
  </symbol>
  <symbol id="n" overflow="visible">
   <path d="m0.46875-3.0469h0.96875v3c0 0.40625-0.10156 0.71094-0.29688 0.92188-0.1875 0.21875-0.46875 0.32812-0.84375 0.32812h-0.48438v-0.64062h0.17188c0.1875 0 0.3125-0.042969 0.375-0.125 0.070313-0.085938 0.10938-0.24609 0.10938-0.48438zm0-1.1719h0.96875v0.78125h-0.96875z"/>
  </symbol>
  <symbol id="m" overflow="visible">
   <path d="m2.9219-2.9531v0.79688c-0.125-0.09375-0.25781-0.16016-0.39062-0.20312-0.13672-0.039063-0.27734-0.0625-0.42188-0.0625-0.27344 0-0.48438 0.085937-0.64062 0.25-0.14844 0.15625-0.21875 0.375-0.21875 0.65625s0.070312 0.50781 0.21875 0.67188c0.15625 0.15625 0.36719 0.23438 0.64062 0.23438 0.15625 0 0.30078-0.019531 0.4375-0.0625 0.13281-0.050781 0.25781-0.125 0.375-0.21875v0.79688c-0.14844 0.0625-0.29688 0.10156-0.45312 0.125-0.15625 0.03125-0.32031 0.046875-0.48438 0.046875-0.54297 0-0.96875-0.14062-1.2812-0.42188s-0.46875-0.67188-0.46875-1.1719 0.15625-0.89062 0.46875-1.1719 0.73828-0.42188 1.2812-0.42188c0.16406 0 0.32031 0.015625 0.46875 0.046875 0.15625 0.023438 0.3125 0.058594 0.46875 0.10938z"/>
  </symbol>
 </defs>
 <g>
  <path d="m542.7 137.12c-3.207-2.2148-7.1211-3.4141-11.691-3.6172 22.707-23.434 31.578-42.188 26.453-56.121-2.6836-7.2969-8.9766-13.352-16.418-15.797-9.1367-3-19.871-0.375-32.539 8.0039 10.512-25.059 11.527-43.133 2.9766-54.102-5.1562-6.6133-13.598-10.785-22.035-10.898-14.043-0.17188-28.262 11.809-42.316 35.629-1.6484 2.7969-3.3008 5.7773-4.9492 8.8984-1.1562-15.555-4.1523-30.98-8.9609-46.031-0.44141-1.3828-1.5352-2.4648-2.9219-2.8945s-2.8984-0.15234-4.043 0.74219c-18.742 14.605-34.711 31.969-47.461 51.605-2.2109 3.4062-4.3125 6.8906-6.3203 10.426-0.74609-7.7578-2.1523-15.441-4.2578-22.977-3.2617-11.668-8.1094-22.855-14.422-33.258-0.80469-1.3281-2.2461-2.1406-3.8008-2.1406-1.5547 0-2.9961 0.8125-3.8008 2.1406-6.3086 10.402-11.16 21.594-14.422 33.258-2.1055 7.5352-3.5117 15.219-4.2578 22.977-2.0078-3.5352-4.1094-7.0156-6.3203-10.426-12.75-19.637-28.715-36.996-47.461-51.605-1.1484-0.89063-2.6562-1.168-4.043-0.74219-1.3906 0.42969-2.4805 1.5078-2.9219 2.8945-4.8086 15.051-7.8086 30.477-8.9609 46.031-1.6484-3.1211-3.3008-6.1016-4.9492-8.8984-14.051-23.812-28.285-35.824-42.309-35.621-8.4375 0.10938-16.879 4.2852-22.035 10.898-8.5547 10.969-7.5391 29.047 2.9766 54.102-12.664-8.3828-23.398-11.004-32.539-8.0039-7.4414 2.4453-13.734 8.4961-16.418 15.793-5.125 13.934 3.7461 32.688 26.453 56.121-4.5703 0.20312-8.4805 1.4023-11.691 3.6172-5.3047 3.6562-8.8438 9.8984-9.2344 16.293-0.61328 10.008 7.0938 20.379 23.02 31.062-3.5898 4.3906-6.7383 10.281-6.7383 17.453 0 0.50391 0.027344 1.5547 0.20703 2.9688 1.2578 9.8438 8.3086 18.32 17.953 21.602l0.42578 0.14453v160.9c-8.6797 10.031-13.941 23.043-13.941 37.254v77.836c0 31.641 26.02 57.379 58 57.379h246.02c31.98 0 58-25.738 58-57.379v-77.836c0-14.211-5.2617-27.219-13.941-37.254l0.003906-160.9 0.42578-0.14453c9.6484-3.2773 16.695-11.758 17.953-21.602 0.17969-1.4141 0.20703-2.4648 0.20703-2.9648 0-7.9414-3.4844-13.871-6.5703-17.566 15.809-10.645 23.461-20.977 22.852-30.949-0.39062-6.3945-3.9297-12.637-9.2344-16.297zm-4.4297-67.086c4.8477 1.5938 9.1094 5.6836 10.852 10.418 4.1289 11.227-2.2148 46.238-140.16 134.76 43.328-52.004 73.703-94.633 91.035-127.7 11.449-10.18 27.109-21.148 38.277-17.48zm-83.484-25.289c8.4297-14.285 21.211-31.262 34.352-31.262h0.19531c5.7148 0.074219 11.656 3.0078 15.141 7.4727 8.3047 10.652 13.613 50.914-108.77 196.23 19.43-80.93 39.285-138.89 59.082-172.44zm-68.539 12.641c11.043-17.004 24.605-32.23 40.387-45.344 4.8242 17.051 7.2461 34.543 7.1992 52.098-12.645 25.805-25.203 69.246-37.75 115.16-7.0195-0.48438-16.188-2.4922-24.973-8.5859-8.9844-6.2305-13.949-14.172-16.598-20.062 2.8438-33.422 13.805-65.648 31.734-93.27zm7.5586 130.65c-3.4648 13.418-6.9141 27.547-10.348 42.383l-33.457 8.2695-33.457-8.2695c-3.4336-14.836-6.8828-28.965-10.348-42.383 8-0.76562 18.051-3.2812 27.754-10.012 7.4727-5.1836 12.582-11.352 16.055-16.977 3.4688 5.625 8.5781 11.793 16.055 16.977 9.6953 6.7305 19.746 9.2422 27.746 10.012zm-53.469-145.65c2.3516-8.4141 5.5898-16.562 9.6602-24.312 4.0703 7.75 7.3086 15.898 9.6602 24.312 3.3555 12.012 4.8594 24.422 4.4961 36.906-6.1719 13.516-10.918 27.723-14.156 42.348-3.2383-14.621-7.9844-28.832-14.156-42.348-0.35938-12.484 1.1406-24.898 4.4961-36.906zm-66.977-30.34c15.777 13.109 29.344 28.336 40.387 45.344 17.934 27.617 28.895 59.848 31.73 93.273-2.6484 5.8906-7.6133 13.828-16.598 20.062-8.7812 6.0898-17.949 8.1016-24.969 8.5859-10.969-42.168-23.016-81.809-37.75-115.16-0.046874-17.559 2.375-35.055 7.1992-52.102zm-77.84 8.9141c3.4805-4.4648 9.4219-7.3984 15.141-7.4727h0.19531c13.137 0 25.922 16.977 34.352 31.262 19.797 33.551 39.652 91.508 59.086 172.44-122.38-145.32-117.07-185.58-108.77-196.23zm-44.645 59.492c1.7422-4.7344 6-8.8242 10.852-10.418 11.172-3.6719 26.824 7.2969 38.281 17.48 17.332 33.062 47.703 75.691 91.035 127.7-137.96-88.516-144.3-123.53-140.17-134.76zm6.0547 73.504c0.22266-3.6133 2.3945-7.4375 5.4062-9.5156 3.6406-2.5117 9.3906-2.75 17.055-0.76172 23.777 22.121 58.602 47.965 104.37 77.438-49.078-14.758-84.613-29.082-105.84-42.691-9.8711-6.3359-21.527-15.719-20.992-24.469zm365.19 270.83v77.836c0 26.738-22.031 48.492-49.109 48.492h-246.02c-27.078 0-49.109-21.754-49.109-48.492v-77.836c0-26.738 22.031-48.488 49.109-48.488 7.0039 0 13.789 1.4414 20.172 4.2812l81.703 36.336c3.7812 8.582 12.156 14.492 21.137 14.492 8.9844 0 17.363-5.918 21.141-14.504l81.699-36.328c6.3828-2.8398 13.168-4.2773 20.172-4.2773 27.078 0 49.109 21.754 49.109 48.488zm-229.96-147.61c-22.551-16.625-46.398-20.117-62.453-20.117l-0.96875 0.003906c-10.051 0.089844-19.266 4.7109-25.281 12.684-6.0312 7.9922-7.8906 18.07-5.1016 27.66 4.5117 15.492 14.695 37.508 37.605 54.398 8.2578 6.0859 30.852 20.25 62.168 20.25 4.3203 0.125 8.4766-0.69141 12.539-2.0586-4.3242 4.2148-6.9023 9.8164-6.9336 15.617-0.023437 4.3281 1.3828 8.5117 3.8281 12.105l-56.793-25.254c-7.5273-3.3477-15.527-5.0469-23.785-5.0469-13.215 0-25.406 4.4062-35.172 11.797l0.003906-149.55 114.7 38.973c9.4531 3.2109 15.805 11.992 15.805 21.852v22.262c-10.438-19.855-25.016-31.781-30.16-35.574zm25.59 76.836c-4.6484 6.1328-11.121 9.0938-19.621 9.1484-28.68 0-49.34-12.949-56.891-18.516-20.91-15.414-30.215-35.551-34.344-49.73-1.9961-6.8672-0.66406-14.09 3.6602-19.82 4.3398-5.75 10.996-9.082 18.242-9.1484l0.92969-0.003906c14.703 0 36.555 3.1875 57.16 18.383 6.0625 4.4688 26.473 21.293 34.586 50.109 1.9062 6.7812 0.55078 13.914-3.7227 19.578zm82.359 18.023c23.035-2.1172 44.422-8.6523 63.922-20.234 22.91-16.891 33.094-38.906 37.602-54.402 2.7891-9.5859 0.92969-19.668-5.1016-27.656-6.0156-7.9688-15.23-12.594-25.301-12.684l-0.96484-0.003907c-16.035 0-39.883 3.4883-62.434 20.117-5.1445 3.793-19.723 15.719-30.16 35.574v-22.262c0-9.8594 6.3516-18.641 15.805-21.852l114.7-38.973v149.55c-9.7656-7.3906-21.957-11.797-35.172-11.797-8.2539 0-16.258 1.6992-23.785 5.0469l-56.797 25.262c2.4492-3.5938 3.8594-7.7812 3.8359-12.109-0.03125-5.8047-2.6133-11.406-6.9375-15.617 3.3945 1.2734 7.0312 1.9766 10.789 2.043zm-17.867-18.023c-4.2734-5.6641-5.6289-12.797-3.7188-19.574 8.1133-28.812 28.523-45.637 34.586-50.109 20.605-15.191 42.457-18.383 57.141-18.383l0.92578 0.003906c7.2695 0.0625 13.926 3.3984 18.266 9.1484 4.3242 5.7305 5.6562 12.953 3.6602 19.82-4.125 14.18-13.434 34.312-34.344 49.73-19.613 12.309-39.836 17.316-58.504 18.5-7.1602-0.125-13.723-3.4531-18.012-9.1367zm144.39-150.24c-0.83203 6.5-5.5391 12.117-11.996 14.312l-124.01 42.137c-13.059 4.4375-21.832 16.602-21.832 30.27v50.48 0.011718 17.07c0 6.4961 3.7852 12.328 9.8789 15.219 5.1797 2.457 8.6797 7.4375 8.707 12.391 0.03125 6.0039-4.9805 11.836-11.664 13.566-5.8008 1.5039-10.352 6.0117-11.879 11.773-1.7422 6.5703-7.6875 11.523-13.828 11.523-6.1406 0-12.086-4.9531-13.828-11.523-1.5273-5.7617-6.0781-10.27-11.879-11.773-6.6836-1.7305-11.695-7.5625-11.664-13.566 0.027343-4.9531 3.5273-9.9336 8.707-12.391 6.0938-2.8906 9.8828-8.7227 9.8828-15.219v-17.07-0.011718-50.48c0-13.668-8.7734-25.832-21.832-30.27l-124.03-42.137c-6.457-2.1914-11.168-7.8125-11.996-14.309-0.125-0.98438-0.13672-1.6562-0.13672-1.8398 0-5.125 2.625-9.4727 5.4609-12.688 26.848 15.758 71.254 32.18 132.96 49.121 0.035156 0.011719 0.070312 0.019531 0.10938 0.027344l37.172 9.1875c0.44531 0.19531 1.5117 0.20312 2.1328 0l37.172-9.1875c0.035157-0.007813 0.074219-0.019531 0.10938-0.027344 61.836-16.977 106.3-33.43 133.13-49.223 2.2383 2.375 5.2852 6.7188 5.2852 12.789 0 0.17969-0.007813 0.85156-0.13281 1.8359zm-4.5625-25.348c-21.223 13.609-56.758 27.934-105.84 42.691 45.766-29.469 80.59-55.312 104.37-77.434 7.6641-1.9844 13.414-1.7461 17.055 0.76172 3.0117 2.0781 5.1875 5.9023 5.4062 9.5195 0.53906 8.7461-11.121 18.129-20.992 24.461z"/>
  <path d="m281.52 291c-17.723-13.066-36.512-15.684-49.238-15.566-5.0234 0.042968-9.6094 2.3672-12.594 6.375-2.9414 3.957-3.8398 8.9336-2.4648 13.656 3.5078 12.059 11.414 29.18 29.156 42.262 5.0508 3.7227 23.258 15.691 48.234 15.691 0.44922 0 0.90234-0.003906 1.3516-0.011718 4.9375-0.085938 9.4609-2.4062 12.402-6.3633 2.9062-3.9062 3.8203-8.8203 2.5117-13.48-6.8906-24.484-24.215-38.766-29.359-42.562zm19.723 50.738c-1.2852 1.7305-3.2656 2.7422-5.4258 2.7812-22.883 0.36719-39.586-10.574-44.16-13.945-15.742-11.605-22.77-26.848-25.895-37.59-0.58984-2.0273-0.20312-4.1641 1.0625-5.8672 1.3047-1.7539 3.3242-2.7734 5.5352-2.793 0.22656-0.003906 0.45703-0.003906 0.6875-0.003906 11.312 0 27.762 2.457 43.195 13.836 4.5703 3.3672 19.953 16.055 26.082 37.816 0.5625 1.9844 0.16797 4.0859-1.082 5.7656z"/>
  <path d="m459.74 399.43c-5.6406 0-11.145 1.0703-16.367 3.1836l-80.453 32.531c-8.3164 3.3594-17.754 3.3594-26.07 0l-80.453-32.531c-5.2227-2.1094-10.73-3.1836-16.367-3.1836-23.859 0-43.273 19.211-43.273 42.824v47.242c0 23.613 19.414 42.824 43.273 42.824h36.48c12.469 0 24.332-5.3242 32.551-14.605l9.3203-10.527c6.5312-7.375 15.969-11.605 25.895-11.605h11.227c9.9258 0 19.363 4.2305 25.895 11.605l9.3203 10.527c8.2148 9.2812 20.078 14.605 32.551 14.605h36.48c23.859 0 43.273-19.211 43.273-42.824v-47.242c-0.007812-23.613-19.418-42.824-43.281-42.824zm-13.473 11.602c7.7305-2.832 14.371-3.4883 19.98-2.0938v13.457c0 9.3281-6.0195 17.57-14.977 20.516-1.7617 0.57812-3.5273 1.1328-5.2969 1.6836 1.1211-12.719 1.6406-24.527 0.29297-33.562zm-32.094 12.977 23.559-9.5273c1.668 9.2422 0.72266 20.633-1.2773 32.891-7.5664 2.0938-15.191 3.9219-22.867 5.457 1.2539-10.105 1.8008-19.879 0.58594-28.82zm-27.367 11.066 18.777-7.5938c0.41406 8.5469-0.14453 17.641-1.2695 27.051-6.1602 1.0469-12.352 1.918-18.566 2.6055 1.6367-7.3984 1.9414-14.75 1.0586-22.062zm-32.48 11.262c4.0859-0.41406 8.082-1.3984 11.922-2.9531l11.781-4.7617c0.12109 6.4805-0.34766 12.984-1.4102 19.406-7.4062 0.60937-14.84 0.96094-22.293 1.0625zm-20.809-2.9531c3.8398 1.5547 7.8359 2.5391 11.922 2.9531v12.754c-7.4531-0.10156-14.887-0.45313-22.293-1.0625-1.0625-6.4219-1.5312-12.926-1.4102-19.406zm-39.332-15.902 18.777 7.5938c-0.82031 7.0195-0.52344 14.359 1.0586 22.062-6.2148-0.6875-12.406-1.5586-18.566-2.6055-2.6016-9.5234-3.1484-18.57-1.2695-27.051zm-32.152-13 23.559 9.5273c-1.1992 8.6328-0.70703 18.445 0.58594 28.82-7.6797-1.5352-15.301-3.3633-22.867-5.457-3.1094-10.777-3.0156-21.746-1.2773-32.891zm-28.516-5.543c6.918-1.5117 13.645-1.3984 19.98 2.0938-1.5039 11.039-1.3672 22.23 0.29297 33.559-1.7695-0.54688-3.5352-1.1016-5.2969-1.6836-8.957-2.9414-14.977-11.188-14.977-20.516zm-15.629 106.5c-7.4844-6.2305-12.25-15.543-12.25-25.938v-47.242c0-13.25 7.7422-24.746 18.988-30.328v10.469c0 8.4375 3.4844 16.227 9.293 21.84v37.586c-6.6211 3.707-11.457 9.6641-13.648 16.871-1.6992 5.5312-2.4805 11.113-2.3828 16.742zm29.98 7.9961c-8.1641 1.2266-15.199 0.61719-20.719-2.4766-0.54297-6.4922 0.019531-13.059 1.6328-19.688 1.5625-5.1406 5.0859-9.3828 9.9258-11.941 6.8008-2.4531 11.375-1.8203 16.488-1.3633-3.8281 9.9297-5.9766 22.156-7.3281 35.469zm32.539-0.22266-23.648 0.22266c0.32813-11.664 2.3867-22.746 7.0352-32.961l21.125 4.8828c-2.9297 8.9102-4.4414 18.242-4.5117 27.855zm8.9453-2.2383c0.28516-8.3164 1.7578-16.379 4.4258-24.07 6.5859 1.0273 13.219 1.8086 19.883 2.3594-5.9805 9.125-14.086 16.363-24.309 21.711zm85.203-29.887c-5.8672-2.8516-12.375-4.3906-19.059-4.3906h-11.227c-6.6875 0-13.191 1.543-19.059 4.3906-19.609-0.82031-39.055-3.7812-57.809-8.832-3.3242-0.89453-6.6758-1.8711-9.9531-2.8945-4.8164-1.5039-9.8203-1.7656-14.637-0.82031v-28.324c29.016 8.8359 65.23 14.547 107.07 17.809 39.203-2.6992 75.727-7.8672 107.07-17.809v28.324c-4.8164-0.94531-9.8164-0.68359-14.637 0.82031-3.2812 1.0234-6.6289 2-9.9531 2.8945-18.754 5.0508-38.199 8.0156-57.809 8.832zm11.551 8.1758c6.6641-0.55078 13.297-1.3281 19.883-2.3594 2.668 7.6914 4.1445 15.754 4.4258 24.07-10.117-4.6289-18.27-11.793-24.309-21.711zm33.25 23.949c-0.070313-9.6133-1.5781-18.945-4.5117-27.852l21.125-4.8828c3.5117 10.754 5.6641 21.777 7.0352 32.961zm53.258-2.2539c-5.7539 2.5508-12.707 3.3047-20.719 2.4766-1.1289-12.172-3.3945-24.043-7.3281-35.469 6.4102-1.7539 11.898-1.2773 16.488 1.3633 4.8359 2.5586 8.3633 6.8008 9.9219 11.934 1.8594 6.5078 2.1758 13.082 1.6367 19.695zm21.512-31.457c0 10.395-4.7656 19.711-12.25 25.941 0.19922-5.6523-0.41016-11.25-2.3906-16.754-2.1875-7.1992-7.0234-13.156-13.645-16.863v-37.586c5.8086-5.6094 9.293-13.406 9.293-21.84v-10.469c11.25 5.5859 18.988 17.078 18.988 30.328z"/>
  <path d="m480.07 281.81c-2.9805-4.0078-7.5703-6.332-12.594-6.375-12.68-0.10156-31.512 2.4961-49.238 15.566-5.1445 3.793-22.469 18.078-29.363 42.562-1.3125 4.6602-0.39453 9.5703 2.5117 13.48 2.9414 3.957 7.4648 6.2773 12.402 6.3633 16.863-0.78516 33.359-6.4922 49.59-15.68 17.742-13.082 25.648-30.203 29.156-42.262 1.375-4.7266 0.47266-9.7031-2.4648-13.656zm-6.0703 11.172c-3.125 10.742-10.156 25.984-25.895 37.59-4.5742 3.3711-21.309 14.328-44.16 13.945-2.1602-0.039063-4.1406-1.0508-5.4258-2.7812-1.25-1.6797-1.6445-3.7812-1.0859-5.7656 6.1289-21.762 21.512-34.445 26.082-37.816 15.754-11.613 32.555-13.957 43.883-13.832 2.2148 0.019532 4.2305 1.0391 5.5352 2.793 1.2695 1.6992 1.6562 3.8359 1.0664 5.8672z"/>
  <use x="141.128906" y="576.667969" xlink:href="#v"/>
  <use x="145.203125" y="576.667969" xlink:href="#d"/>
  <use x="147.945312" y="576.667969" xlink:href="#b"/>
  <use x="151.710938" y="576.667969" xlink:href="#l"/>
  <use x="155.460938" y="576.667969" xlink:href="#a"/>
  <use x="158.117188" y="576.667969" xlink:href="#b"/>
  <use x="161.882812" y="576.667969" xlink:href="#f"/>
  <use x="167.796875" y="576.667969" xlink:href="#k"/>
  <use x="171.773438" y="576.667969" xlink:href="#e"/>
  <use x="177.328125" y="576.667969" xlink:href="#j"/>
  <use x="181.628906" y="576.667969" xlink:href="#i"/>
  <use x="187.417969" y="576.667969" xlink:href="#b"/>
  <use x="191.183594" y="576.667969" xlink:href="#a"/>
  <use x="193.839844" y="576.667969" xlink:href="#h"/>
  <use x="197.796875" y="576.667969" xlink:href="#e"/>
  <use x="201.417969" y="576.667969" xlink:href="#u"/>
  <use x="204.722656" y="576.667969" xlink:href="#a"/>
  <use x="209.3125" y="576.667969" xlink:href="#t"/>
  <use x="213.3125" y="576.667969" xlink:href="#a"/>
  <use x="215.96875" y="576.667969" xlink:href="#g"/>
  <use x="219.925781" y="576.667969" xlink:href="#f"/>
  <use x="223.902344" y="576.667969" xlink:href="#s"/>
  <use x="225.804688" y="576.667969" xlink:href="#c"/>
  <use x="141.128906" y="582.222656" xlink:href="#r"/>
  <use x="143.542969" y="582.222656" xlink:href="#d"/>
  <use x="146.285156" y="582.222656" xlink:href="#c"/>
  <use x="150.101562" y="582.222656" xlink:href="#i"/>
  <use x="157.824219" y="582.222656" xlink:href="#a"/>
  <use x="160.480469" y="582.222656" xlink:href="#h"/>
  <use x="164.433594" y="582.222656" xlink:href="#b"/>
  <use x="170.136719" y="582.222656" xlink:href="#q"/>
  <use x="174.785156" y="582.222656" xlink:href="#c"/>
  <use x="178.601562" y="582.222656" xlink:href="#g"/>
  <use x="182.558594" y="582.222656" xlink:href="#p"/>
  <use x="188.445312" y="582.222656" xlink:href="#o"/>
  <use x="192.519531" y="582.222656" xlink:href="#d"/>
  <use x="195.257812" y="582.222656" xlink:href="#c"/>
  <use x="199.074219" y="582.222656" xlink:href="#n"/>
  <use x="200.980469" y="582.222656" xlink:href="#b"/>
  <use x="204.746094" y="582.222656" xlink:href="#m"/>
  <use x="208.039062" y="582.222656" xlink:href="#a"/>
 </g>
</svg>
